<svg width="119" height="23" viewBox="0 0 119 23" fill="none" xmlns="http://www.w3.org/2000/svg">
<path d="M-8.59858e-08 22.4763V0.440711H5.13115L14.2602 15.4249H11.5529L20.4301 0.440711H25.5613L25.6243 22.4763H19.895L19.832 9.16051H20.8079L14.1657 20.3042H11.3956L4.56452 9.16051H5.76074V22.4763H-8.59858e-08ZM40.2024 22.917C38.4396 22.917 36.8131 22.6337 35.3231 22.0671C33.8331 21.5004 32.5319 20.703 31.4197 19.6746C30.3284 18.6253 29.4784 17.4081 28.8698 16.023C28.2612 14.6379 27.9569 13.1164 27.9569 11.4585C27.9569 9.80059 28.2612 8.27909 28.8698 6.89399C29.4784 5.5089 30.3284 4.30219 31.4197 3.27386C32.5319 2.22455 33.8331 1.41657 35.3231 0.849944C36.8131 0.283314 38.4396 -4.83276e-07 40.2024 -4.83276e-07C41.9863 -4.83276e-07 43.6127 0.283314 45.0817 0.849944C46.5718 1.41657 47.8624 2.22455 48.9537 3.27386C50.045 4.30219 50.8949 5.5089 51.5035 6.89399C52.1331 8.27909 52.4479 9.80059 52.4479 11.4585C52.4479 13.1164 52.1331 14.6484 51.5035 16.0545C50.8949 17.4396 50.045 18.6463 48.9537 19.6746C47.8624 20.703 46.5718 21.5004 45.0817 22.0671C43.6127 22.6337 41.9863 22.917 40.2024 22.917ZM40.2024 17.7544C41.0419 17.7544 41.8184 17.6075 42.5319 17.3137C43.2664 17.0199 43.896 16.6002 44.4207 16.0545C44.9663 15.4879 45.386 14.8163 45.6798 14.0398C45.9946 13.2633 46.152 12.4029 46.152 11.4585C46.152 10.4931 45.9946 9.6327 45.6798 8.8772C45.386 8.10071 44.9663 7.43964 44.4207 6.89399C43.896 6.32736 43.2664 5.89715 42.5319 5.60334C41.8184 5.30953 41.0419 5.16263 40.2024 5.16263C39.363 5.16263 38.576 5.30953 37.8415 5.60334C37.1279 5.89715 36.4983 6.32736 35.9527 6.89399C35.428 7.43964 35.0083 8.10071 34.6935 8.8772C34.3997 9.6327 34.2528 10.4931 34.2528 11.4585C34.2528 12.4029 34.3997 13.2633 34.6935 14.0398C35.0083 14.8163 35.428 15.4879 35.9527 16.0545C36.4983 16.6002 37.1279 17.0199 37.8415 17.3137C38.576 17.6075 39.363 17.7544 40.2024 17.7544ZM59.1511 22.4763V5.38298H52.383V0.440711H72.1206V5.38298H65.384V22.4763H59.1511ZM79.0702 17.597L78.7239 10.6086L88.1992 0.440711H95.0617L85.6179 10.6715L82.1552 14.2917L79.0702 17.597ZM73.4983 22.4763V0.440711H79.6683V22.4763H73.4983ZM88.2936 22.4763L81.1163 13.3788L85.1772 9.0346L95.5339 22.4763H88.2936ZM92.5355 22.4763L102.263 0.440711H108.401L118.16 22.4763H111.675L104.057 3.49422H106.512L98.8943 22.4763H92.5355ZM97.8555 18.1951L99.461 13.5991H110.227L111.832 18.1951H97.8555Z" fill="#333333"/>
</svg>
